{"title":"Mars Needs Moms 2011 XViD DVDRip - DTRG - SAFCuk009","uid":6466788,"size":1562711558,"categoryP":"video","categoryS":"movies","magnet":"?xt=urn:btih:d7167e40e3022272f5fadf82c10f3799b6e29961&amp;dn=Mars+Needs+Moms+2011+XViD+DVDRip+-+DTRG+-+SAFCuk009&amp;tr=udp%3A%2F%2Ftracker.openbittorrent.com%3A80&amp;tr=udp%3A%2F%2Fopen.demonii.com%3A1337&amp;tr=udp%3A%2F%2Ftracker.coppersurfer.tk%3A6969&amp;tr=udp%3A%2F%2Fexodus.desync.com%3A6969","seeders":0,"leechers":0,"uploader":"SAFCukO09","files":3,"time":1307986708,"description":"Format : AVI\nFormat/Info : Audio Video Interleave\nFile size : 1.46 GiB\nDuration : 1h 24mn\nOverall bit rate : 2 467 Kbps\nWriting library : VirtualDub build 32839/release\n\nVideo\nID : 0\nFormat : MPEG-4 Visual\nFormat profile : Advanced Simple@L5\nFormat settings, BVOP : 2\nFormat settings, QPel : No\nFormat settings, GMC : No warppoints\nFormat settings, Matrix : Default (H.263)\nMuxing mode : Packed bitstream\nCodec ID : XVID\nCodec ID/Hint : XviD\nDuration : 1h 24mn\nBit rate : 2 329 Kbps\nWidth : 720 pixels\nHeight : 304 pixels\nDisplay aspect ratio : 2.35:1\nFrame rate : 25.000 fps\nColor space : YUV\nChroma subsampling : 4:2:0\nBit depth : 8 bits\nScan type : Progressive\nCompression mode : Lossy\nBits/(Pixel*Frame) : 0.426\nStream size : 1.37 GiB (94%)\nWriting library : XviD 63\n\nAudio\nID : 1\nFormat : MPEG Audio\nFormat version : Version 1\nFormat profile : Layer 3\nMode : Joint stereo\nMode extension : MS Stereo\nCodec ID : 55\nCodec ID/Hint : MP3\nDuration : 1h 24mn\nBit rate mode : Constant\nBit rate : 128 Kbps\nChannel(s) : 2 channels\nSampling rate : 48.0 KHz\nCompression mode : Lossy\nStream size : 77.3 MiB (5%)\nAlignment : Split accross interleaves\nInterleave, duration : 40 ms (1.00 video frame)\nInterleave, preload duration : 500 ms\n\n\n &lt;a href=&quot;\nhttp://www.imdb.com/title/tt1305591/&quot; rel=&quot;nofollow&quot; target=&quot;_NEW&quot;&gt;\nhttp://www.imdb.com/title/tt1305591/&lt;/a&gt;\n\n\n\n\n\n\n\nUsers: 4.1/10 (1,467 votes) 42 reviews | Critics: 93 reviews Metascore: 49/100 (based on 22 reviews from Metacritic.com)\n\nA young boy named Milo gains a deeper appreciation for his mom after Martians come to Earth to take her away.\nDirector:\nSimon Wells\nWriters:\nSimon Wells (screenplay), Wendy Wells (screenplay), and 1 more credit Ã‚Â»\nStars:\nSeth Green, Joan Cusack and Dan Fogler\n\n\n\n\n\n\n\n\n\n\n\n\n\n\n\n\nSource Used\n\n\nMars Needs Moms PAL DVDR-iGNiTiON ........Thanks\n\n\nGreetz to IMAGiNE,Flawl3ss,DiLLoN,BDK,NOiR,TOXiC,THC,Ez,Rx,Boobyblue,TaRiQ786,LKRG,EP1C\n","torrent":{"xt":"urn:btih:d7167e40e3022272f5fadf82c10f3799b6e29961","amp;dn":"Mars+Needs+Moms+2011+XViD+DVDRip+-+DTRG+-+SAFCuk009","amp;tr":["udp%3A%2F%2Ftracker.openbittorrent.com%3A80","udp%3A%2F%2Fopen.demonii.com%3A1337","udp%3A%2F%2Ftracker.coppersurfer.tk%3A6969","udp%3A%2F%2Fexodus.desync.com%3A6969"],"infoHash":"d7167e40e3022272f5fadf82c10f3799b6e29961","infoHashBuffer":{"type":"Buffer","data":[215,22,126,64,227,2,34,114,245,250,223,130,193,15,55,153,182,226,153,97]},"announce":[],"urlList":[]}}